<svg xmlns="http://www.w3.org/2000/svg">
    <symbol fill="none" id="sprite-basket" viewBox="0 0 32 32">
        <title>basket</title>
        <path d="M2 12.6c-.1-.5.3-1.1.8-1.2h24.8c.6 0 1 .4 1 1v.2l-2.6 15c-.1.5-.5.8-1 .8H5.6c-.5 0-.9-.3-1-.8L2 12.6Z"
               stroke-width="2" stroke-miterlimit="10"/>
        <path d="m11.8 2.4-4 8m11-8 4 8-4-8Z" stroke-width="2" stroke-miterlimit="10"
              stroke-linecap="round" stroke-linejoin="round"/>
    </symbol>
    <symbol fill="none" id="sprite-arr-right" viewBox="0 0 9 15">
        <title>arr-right</title>
        <path d="m1 13.5 6-6-6-6" stroke="#fff" stroke-width="2"/>
    </symbol>
    <symbol fill="none" id="sprite-lapka" viewBox="0 0 57 55">
        <title>lapka</title>
        <g opacity=".5" clip-path="url(#a)">
            <path d="m30.974 16.076-.001.003c-.436 1.825-1.296 3.356-2.285 4.347-1.004 1.005-2.005 1.339-2.801 1.161-.795-.177-1.536-.888-1.98-2.194-.44-1.29-.524-3.015-.09-4.839.451-1.855 1.312-3.385 2.295-4.367.996-.995 1.991-1.322 2.792-1.143.802.18 1.547.886 1.993 2.178.44 1.28.526 3.003.077 4.854ZM18.91 18.744c-.036 1.784-.525 3.371-1.243 4.483-.728 1.128-1.59 1.638-2.37 1.64-.77.002-1.588-.488-2.254-1.59-.66-1.091-1.082-2.665-1.046-4.452.035-1.784.524-3.371 1.242-4.483.728-1.128 1.591-1.638 2.37-1.64.77-.002 1.588.488 2.255 1.59.66 1.091 1.082 2.665 1.046 4.452ZM9.928 38.439v-.001c-.86-.996-.871-2.326.086-4.012.961-1.694 2.795-3.502 5.082-5.052 2.277-1.543 4.921-2.775 7.425-3.368 2.527-.598 4.762-.514 6.352.364 1.576.87 2.832 2.711 3.67 5.168.829 2.433 1.196 5.327 1.103 8.076-.093 2.762-.646 5.277-1.57 6.99-.917 1.703-2.053 2.403-3.37 2.2h-.003c-1.426-.215-2.273-.6-2.833-1.025-.56-.425-.915-.95-1.267-1.609a19.772 19.772 0 0 1-.281-.55c-.63-1.253-1.425-2.841-3.599-3.912h-.001l-.001-.001h-.001v-.001h-.002l-.001-.001h-.001v-.001h-.001l-.002-.001-.001-.001h-.001l-.001-.001h-.001l-.001-.001h-.001v-.001h-.001l-.001-.001h-.002v-.001h-.001l-.001-.001H20.7v-.001h-.002l-.001-.001h-.001v-.001h-.002v-.001h-.001l-.001-.001h-.001v-.001h-.002l-.001-.001h-.001v-.001h-.002v-.001h-.001l-.001-.001h-.001l-.001-.001h-.001v-.001h-.002v-.001h-.001l-.001-.001h-.001l-.001-.001h-.001l-.001-.001h-.001v-.001h-.002v-.001h-.002v-.001h-.001l-.001-.001h-.001l-.001-.001h-.001l-.001-.001h-.001v-.001h-.002v-.001h-.002v-.001h-.002v-.001h-.001l-.001-.001h-.001v-.001h-.002v-.001h-.002v-.001h-.001l-.001-.001h-.001l-.001-.001h-.001v-.001h-.002v-.001h-.002v-.001h-.002v-.001h-.001l-.001-.001h-.001v-.001h-.002v-.001h-.002v-.001h-.002v-.001h-.001l-.001-.001h-.001l-.001-.001h-.001l-.001-.001h-.001v-.001h-.001l-.001-.001h-.001l-.001-.001h-.001l-.001-.001h-.001v-.001h-.002v-.001h-.002v-.001h-.002v-.001h-.001l-.001-.001h-.001l-.001-.001h-.001v-.001H20.6v-.001h-.001l-.001-.001h-.001l-.001-.001h-.001l-.001-.001h-.001v-.001h-.002v-.001h-.002v-.001h-.001l-.001-.001h-.001l-.001-.001h-.001v-.001h-.002v-.001h-.002v-.001h-.002v-.001h-.001l-.001-.001h-.001v-.001h-.002v-.001h-.002v-.001h-.001l-.001-.001h-.001l-.001-.001h-.001l-.001-.001h-.001l-.001-.001h-.001v-.001h-.002v-.001h-.002v-.001h-.001l-.001-.001h-.001l-.001-.001h-.001l-.001-.001h-.001v-.001h-.002v-.001h-.001l-.001-.001h-.001l-.001-.001h-.001v-.001h-.002v-.001h-.001l-.001-.001h-.001l-.001-.001h-.001v-.001h-.002v-.001h-.002v-.001h-.002v-.001h-.001l-.001-.001h-.001l-.001-.001h-.001l-.001-.001h-.001v-.001h-.002v-.001h-.001l-.001-.001h-.002v-.001h-.001v-.001h-.002v-.001h-.002v-.001h-.001l-.001-.001h-.001l-.001-.001h-.001l-.001-.001h-.001l-.001-.001h-.001v-.001h-.001l-.001-.001H20.5l-.001-.001h-.001v-.001h-.002v-.001h-.002l-.001-.001h-.001v-.001h-.002v-.001h-.001l-.001-.001h-.001l-.001-.001h-.001l-.001-.001h-.001v-.001h-.002v-.001h-.001v-.001h-.002v-.001h-.002v-.001h-.001l-.002-.001-.001-.001h-.002v-.001h-.001v-.001h-.002v-.001h-.001l-.002-.001h-.001v-.001h-.002v-.001h-.001l-.001-.001h-.002v-.001h-.001v-.001h-.001l-.002-.001-.001-.001h-.001l-.002-.001-.001-.001h-.001v-.001h-.002v-.001h-.001l-.001-.001h-.001l-.001-.001h-.002v-.001h-.001v-.001h-.002v-.001h-.001l-.002-.001-.001-.001h-.001l-.001-.001h-.001v-.001h-.002v-.001h-.002v-.001h-.002v-.001h-.001l-.001-.001h-.001l-.001-.001h-.001v-.001h-.002v-.001h-.001l-.001-.001h-.001l-.001-.001h-.001v-.001h-.002v-.001h-.001l-.001-.001h-.001l-.001-.001h-.001l-.001-.001h-.001v-.001H20.4v-.001h-.002v-.001h-.001l-.001-.001h-.001l-.001-.001h-.001l-.001-.001h-.001l-.001-.001h-.001v-.001h-.002v-.001h-.002v-.001h-.001l-.001-.001h-.001v-.001h-.002v-.001h-.002v-.001h-.002v-.001h-.001l-.001-.001h-.001l-.001-.001h-.001v-.001h-.002v-.001h-.002v-.001h-.001l-.001-.001h-.001l-.001-.001h-.001l-.001-.001h-.001v-.001h-.001l-.001-.001h-.001l-.001-.001h-.001l-.001-.001h-.001v-.001h-.002v-.001h-.002v-.001h-.002V41.5h-.001l-.001-.001h-.001l-.001-.001h-.001l-.001-.001h-.001v-.001h-.001l-.001-.001h-.001l-.001-.001h-.001l-.001-.001h-.001v-.001h-.002v-.001h-.002v-.001h-.002v-.001h-.001l-.001-.001h-.001v-.001h-.002v-.001h-.002v-.001h-.002v-.001h-.001l-.001-.001h-.001l-.001-.001h-.001v-.001h-.002v-.001h-.002v-.001h-.001l-.001-.001h-.001v-.001h-.002v-.001h-.002v-.001H20.3v-.001l-.001-.001h-.001l-.001-.001h-.001l-.001-.001h-.001v-.001h-.002v-.001h-.002v-.001h-.001l-.001-.001h-.001l-.001-.001h-.001v-.001h-.002v-.001h-.002v-.001h-.001l-.001-.001h-.001l-.001-.001h-.001v-.001h-.002v-.001h-.001l-.001-.001h-.002v-.001h-.001l-.001-.001h-.001v-.001h-.002v-.001h-.001l-.001-.001h-.002v-.001h-.001l-.001-.001h-.001v-.001h-.003v-.001h-.001v-.001h-.001l-.001-.001h-.002v-.001h-.001l-.001-.001h-.001v-.001h-.002v-.001h-.001l-.001-.001h-.002v-.001h-.001l-.001-.001h-.002v-.001c-2.09-1.283-3.87-1.116-5.277-.984-.212.02-.415.04-.61.053-.75.05-1.385.03-2.044-.218-.66-.248-1.437-.76-2.378-1.852ZM36.463 19.11l.003-.003c1.326-1.366 2.83-2.212 4.148-2.52 1.33-.313 2.325-.058 2.904.525.579.583.832 1.599.521 2.971-.307 1.356-1.144 2.9-2.474 4.27-1.327 1.367-2.83 2.213-4.148 2.522-1.33.312-2.326.058-2.905-.526-.574-.579-.826-1.604-.51-2.99.311-1.364 1.149-2.908 2.461-4.249Zm8.505 10.12c1.272-.017 2.121.419 2.535 1.076.393.649.42 1.656-.142 2.878-.554 1.205-1.624 2.47-3.11 3.447l-.006.004c-1.506 1.006-3.059 1.486-4.326 1.503-1.276.017-2.126-.42-2.54-1.08-.413-.661-.441-1.663.125-2.88.559-1.2 1.641-2.46 3.132-3.44l.006-.004c1.506-1.007 3.058-1.486 4.326-1.503Z"
                  stroke="#8D58E3" stroke-width="2"/>
            <mask id="b" fill="#fff">
                <path d="M47.09 15.093c-.264-.146-1.262-.835-2.707.16.383.555 1.482 2.058 1.482 2.058s.172-1.56 1.225-2.218Z"/>
            </mask>
            <path d="m47.09 15.093 1.061 1.695 2.881-1.803-2.975-1.643-.967 1.75Zm-2.707.16-1.134-1.648-1.647 1.134 1.134 1.647 1.647-1.134Zm1.482 2.058-1.614 1.181 3.04 4.153.563-5.115-1.989-.219Zm2.192-3.97c.043.025-.224-.133-.472-.246a4.127 4.127 0 0 0-1.123-.33c-.981-.14-2.094.07-3.213.84l2.268 3.295a1.06 1.06 0 0 1 .333-.169.205.205 0 0 1 .04-.006h.007c.001 0 .012.002.036.013a.756.756 0 0 1 .098.053l.093.053 1.933-3.502Zm-5.321 3.045c.207.302.593.837.913 1.278.162.225.313.431.423.582l.13.18.037.049.01.013.002.003v.001l1.614-1.18 1.614-1.182-.002-.004-.01-.012-.035-.048a187.186 187.186 0 0 1-1.401-1.947l-3.295 2.267Zm3.13.925 1.987.22v.008l-.001.006a.16.16 0 0 1-.001.008v-.006l.016-.082c.017-.084.047-.2.092-.323.11-.295.21-.365.192-.354l-2.122-3.39c-1.071.67-1.582 1.709-1.822 2.358a6.283 6.283 0 0 0-.327 1.312l-.001.013v.006l-.001.003v.001l1.987.22Z"
                  fill="#8D58E3" mask="url(#b)"/>
            <mask id="c" fill="#fff">
                <path d="M30.246 7.655s-1.005-1.175-.739-2.406c-.275.123-1.499.343-1.787 2.114.645.08 2.526.292 2.526.292Z"/>
            </mask>
            <path d="m30.246 7.655-.223 1.987 5.04.568-3.297-3.855-1.52 1.3Zm-.739-2.406 1.955.422L32.3 1.8l-3.613 1.626.821 1.824ZM27.72 7.363l-1.974-.321-.334 2.049 2.06.257.248-1.985Zm2.526.292a312.475 312.475 0 0 1 1.522-1.298l.001.002.003.003a.216.216 0 0 0 .005.005l.005.007-.002-.003a2.086 2.086 0 0 1-.205-.333c-.128-.264-.11-.38-.113-.367l-3.91-.845c-.268 1.244.12 2.332.427 2.963a6.089 6.089 0 0 0 .731 1.147l.009.01a.249.249 0 0 1 .006.008c.001 0 .001.001 1.521-1.299Zm-1.56-4.23c.3-.135-.673.202-1.293.682-.788.611-1.424 1.564-1.647 2.935l3.948.642c.036-.223.09-.33.112-.368.021-.035.034-.044.038-.047a.34.34 0 0 1 .077-.04 1.52 1.52 0 0 1 .108-.04l.104-.038c.037-.013.111-.041.195-.079l-1.642-3.647Zm-1.213 5.923a194.483 194.483 0 0 0 2.244.26 388.088 388.088 0 0 0 .3.034h.005l.224-1.987.224-1.987h-.001l-.004-.001-.016-.002a97.903 97.903 0 0 1-.282-.032c-.186-.02-.44-.05-.715-.081a160.99 160.99 0 0 1-1.485-.174l-.494 3.97Z"
                  fill="#8D58E3" mask="url(#c)"/>
            <mask id="d" fill="#fff">
                <path d="M16.702 11.342s-1.093-1.017-1.014-2.282c-.275.123-1.481.56-1.5 2.342.621-.002 2.514-.06 2.514-.06Z"/>
            </mask>
            <path d="m16.702 11.342.061 2 4.864-.15-3.563-3.314-1.362 1.464ZM15.688 9.06l1.996.124.206-3.308-3.023 1.36.82 1.824Zm-1.5 2.342-2-.021-.02 2.026 2.026-.005-.006-2Zm2.514-.06a278.034 278.034 0 0 1 1.363-1.463h.001l.002.002a.11.11 0 0 1 .003.003l.005.005.007.007a1.26 1.26 0 0 1-.049-.053 2.04 2.04 0 0 1-.183-.244c-.151-.237-.17-.38-.167-.415l-3.992-.248c-.077 1.23.412 2.228.788 2.816a6.033 6.033 0 0 0 .816 1.013l.025.024a.739.739 0 0 0 .01.01l.005.004.002.002c.001.001.002.001 1.364-1.463Zm-1.835-4.106a5.007 5.007 0 0 0-.513.251 4.222 4.222 0 0 0-.945.727c-.703.722-1.206 1.771-1.22 3.167l4 .042a1 1 0 0 1 .054-.364c.015-.038.028-.05.032-.055a.232.232 0 0 1 .052-.037c.045-.026.037-.019.182-.084l-1.642-3.647Zm-.673 6.166a87.99 87.99 0 0 0 1.537-.031 291.69 291.69 0 0 0 .948-.027l.062-.002h.022l-.061-2-.061-1.999h-.001a.322.322 0 0 0-.02 0l-.06.003a266.101 266.101 0 0 1-.935.026c-.558.015-1.16.029-1.442.03l.01 4Z"
                  fill="#8D58E3" mask="url(#d)"/>
            <mask id="e" fill="#fff">
                <path d="M51.147 28.841c-.235-.199-1.145-1.046-2.69-.245.3.58 1.178 2.236 1.178 2.236s.359-1.525 1.512-1.99Z"/>
            </mask>
            <path d="m51.147 28.841.75 1.854 3.072-1.242-2.53-2.14-1.292 1.528Zm-2.69-.245-.921-1.775-1.776.92.921 1.776 1.776-.92Zm1.178 2.236-1.768.936 2.493 4.704 1.221-5.182-1.946-.458Zm2.803-3.518c-.1-.086-.672-.613-1.565-.884-.965-.293-2.117-.242-3.337.39l1.841 3.552a.914.914 0 0 1 .314-.113c.027-.003.03.001.022-.001-.002 0 .005 0 .024.014.026.017.03.02.119.096l2.582-3.054Zm-5.757 2.203a260.664 260.664 0 0 0 1.044 1.983l.104.195a10.852 10.852 0 0 1 .036.068l.002.004v.001l1.768-.936 1.767-.937v-.001l-.003-.003-.007-.014-.028-.054-.104-.195-.333-.63c-.258-.489-.549-1.04-.695-1.322l-3.55 1.841Zm2.954 1.315c1.946.458 1.946.459 1.946.46v.003l-.002.004-.002.007a1.334 1.334 0 0 0-.002.008c0 .004 0 .002.002-.003.003-.011.01-.037.023-.074.026-.076.068-.18.124-.286.137-.259.226-.277.172-.256l-1.498-3.708c-1.207.488-1.875 1.464-2.205 2.084a6.03 6.03 0 0 0-.5 1.277l-.002.014-.002.006v.004s-.001.001 1.946.46Z"
                  fill="#8D58E3" mask="url(#e)"/>
        </g>
        <defs>
            <clipPath id="a">
                <path fill="#fff" transform="rotate(28.901 10 38.806)" d="M0 0h41.207v40H0z"/>
            </clipPath>
        </defs>
    </symbol>
    <symbol fill="none" id="sprite-location" viewBox="0 0 12 14">
        <title>location</title>
        <path d="M9.982 9.935 5.834 14 1.686 9.871a5.783 5.783 0 0 1 0-8.194c2.268-2.258 5.963-2.258 8.231 0 2.334 2.323 2.334 5.936.065 8.258ZM5.834 7.742c1.102 0 1.944-.839 1.944-1.936 0-1.096-.842-1.935-1.944-1.935-1.102 0-1.944.839-1.944 1.935 0 1.097.842 1.936 1.944 1.936Z"
              fill="#7B94B0"/>
    </symbol>
    <symbol fill="none" id="sprite-search" viewBox="0 0 32 32">
        <title>search</title>
        <circle cx="14" cy="14" r="10" stroke="#202454" stroke-width="2" stroke-miterlimit="10"/>
        <path stroke="#202454" stroke-width="2" stroke-miterlimit="10" stroke-linecap="round" d="M21.414 21 28 27.586"/>
    </symbol>
    <symbol fill="none" id="sprite-arr-down" viewBox="0 0 10 7">
        <title>arr-down</title>
        <path d="m1 1 4 4 4-4" stroke="#7B94B0" stroke-width="2"/>
    </symbol>
    <symbol fill="none" id="sprite-fav" viewBox="0 0 32 32">
        <title>fav</title>
        <path d="m15.885 6.798.672.587.66-.601c2.712-2.473 7.108-2.358 9.709.239a6.989 6.989 0 0 1 .25 9.678L16.535 27.578 5.779 16.84c-2.48-2.855-2.339-7.1.246-9.681 2.739-2.735 7.01-2.85 9.86-.36Z"
              stroke="#202454" stroke-width="2"/>
    </symbol>
    <symbol fill="none" id="sprite-arroww" viewBox="0 0 14 9">
        <title>arroww</title>
        <path d="m1 8 6-6 6 6" stroke="#fff" stroke-width="2"/>
    </symbol>
    <symbol id="sprite-star" viewBox="0 0 12 12">
        <title>star</title>
        <path d="M5.53 1.3a.5.5 0 0 1 .94 0l1.106 3.054a.5.5 0 0 0 .453.33l3.248.107a.5.5 0 0 1 .29.894L9.003 7.681a.5.5 0 0 0-.173.533l.901 3.122a.5.5 0 0 1-.76.553l-2.69-1.822a.5.5 0 0 0-.561 0l-2.69 1.822a.5.5 0 0 1-.761-.553l.9-3.122a.5.5 0 0 0-.172-.533L.433 5.685a.5.5 0 0 1 .29-.894l3.248-.107a.5.5 0 0 0 .453-.33L5.53 1.3Z"/>
    </symbol>
    <symbol fill="none" id="sprite-update" viewBox="0 0 13 16">
        <title>update</title>
        <path d="M6.31 11.626h1.703l-2.196 2.196L6.995 15l4.225-4.225-.026-.027.026-.026-4.218-4.22-1.178 1.179 2.282 2.282H6.31a3.652 3.652 0 0 1-3.646-3.646A3.658 3.658 0 0 1 6.31 2.663 3.652 3.652 0 0 1 9.956 6.31h1.664A5.316 5.316 0 0 0 6.31 1 5.316 5.316 0 0 0 1 6.31c0 2.928 2.382 5.316 5.31 5.316Z"
              fill="#fff"/>
    </symbol>
    <symbol fill="none" id="sprite-user" viewBox="0 0 22 26">
        <title>user</title>
        <g clip-path="url(#a)"  stroke-width="2" stroke-miterlimit="10">
            <circle cx="11" cy="8" r="6"/>
            <path d="M1 24a6 6 0 0 1 6-6h8a6 6 0 0 1 6 6v3H1v-3Z"/>
        </g>
    </symbol>
</svg>