<svg xmlns="http://www.w3.org/2000/svg">
    <symbol fill="none" id="sprite-basket" viewBox="0 0 32 32">
        <title>basket</title>
        <path d="M2 12.6c-.1-.5.3-1.1.8-1.2h24.8c.6 0 1 .4 1 1v.2l-2.6 15c-.1.5-.5.8-1 .8H5.6c-.5 0-.9-.3-1-.8L2 12.6Z"
               stroke-width="2" stroke-miterlimit="10"/>
        <path d="m11.8 2.4-4 8m11-8 4 8-4-8Z" stroke-width="2" stroke-miterlimit="10"
              stroke-linecap="round" stroke-linejoin="round"/>
    </symbol>
    <symbol fill="none" id="sprite-fav" viewBox="0 0 32 32">
        <title>fav</title>
        <path d="m15.885 6.798.672.587.66-.601c2.712-2.473 7.108-2.358 9.709.239a6.989 6.989 0 0 1 .25 9.678L16.535 27.578 5.779 16.84c-2.48-2.855-2.339-7.1.246-9.681 2.739-2.735 7.01-2.85 9.86-.36Z"
              stroke="#202454" stroke-width="2"/>
    </symbol>
    <symbol fill="none" id="sprite-arroww" viewBox="0 0 14 9">
        <title>arroww</title>
        <path d="m1 8 6-6 6 6" stroke="#fff" stroke-width="2"/>
    </symbol>
    <symbol id="sprite-star" viewBox="0 0 12 12">
        <title>star</title>
        <path d="M5.53 1.3a.5.5 0 0 1 .94 0l1.106 3.054a.5.5 0 0 0 .453.33l3.248.107a.5.5 0 0 1 .29.894L9.003 7.681a.5.5 0 0 0-.173.533l.901 3.122a.5.5 0 0 1-.76.553l-2.69-1.822a.5.5 0 0 0-.561 0l-2.69 1.822a.5.5 0 0 1-.761-.553l.9-3.122a.5.5 0 0 0-.172-.533L.433 5.685a.5.5 0 0 1 .29-.894l3.248-.107a.5.5 0 0 0 .453-.33L5.53 1.3Z"/>
    </symbol>
    <symbol fill="none" id="sprite-update" viewBox="0 0 13 16">
        <title>update</title>
        <path d="M6.31 11.626h1.703l-2.196 2.196L6.995 15l4.225-4.225-.026-.027.026-.026-4.218-4.22-1.178 1.179 2.282 2.282H6.31a3.652 3.652 0 0 1-3.646-3.646A3.658 3.658 0 0 1 6.31 2.663 3.652 3.652 0 0 1 9.956 6.31h1.664A5.316 5.316 0 0 0 6.31 1 5.316 5.316 0 0 0 1 6.31c0 2.928 2.382 5.316 5.31 5.316Z"
              fill="#fff"/>
    </symbol>
    <symbol fill="none" id="sprite-user" viewBox="0 0 22 26">
        <title>user</title>
        <g clip-path="url(#a)"  stroke-width="2" stroke-miterlimit="10">
            <circle cx="11" cy="8" r="6"/>
            <path d="M1 24a6 6 0 0 1 6-6h8a6 6 0 0 1 6 6v3H1v-3Z"/>
        </g>
    </symbol>
</svg>